<?xml version="1.0" encoding="UTF-8" standalone="no"?>
<svg
   xmlns:dc="http://purl.org/dc/elements/1.1/"
   xmlns:cc="http://creativecommons.org/ns#"
   xmlns:rdf="http://www.w3.org/1999/02/22-rdf-syntax-ns#"
   xmlns:svg="http://www.w3.org/2000/svg"
   xmlns="http://www.w3.org/2000/svg"
   xmlns:sodipodi="http://sodipodi.sourceforge.net/DTD/sodipodi-0.dtd"
   xmlns:inkscape="http://www.inkscape.org/namespaces/inkscape"
   style="display: block;"
   id="svg"
   version="1.1"
   width="1000"
   height="750"
   inkscape:version="0.47 r22583"
   sodipodi:docname="3DPRLogo.svg">
  <metadata
     id="metadata2842">
    <rdf:RDF>
      <cc:Work
         rdf:about="">
        <dc:format>image/svg+xml</dc:format>
        <dc:type
           rdf:resource="http://purl.org/dc/dcmitype/StillImage" />
      </cc:Work>
    </rdf:RDF>
  </metadata>
  <defs
     id="defs2840">
    <inkscape:perspective
       sodipodi:type="inkscape:persp3d"
       inkscape:vp_x="0 : 375 : 1"
       inkscape:vp_y="0 : 1000 : 0"
       inkscape:vp_z="1000 : 375 : 1"
       inkscape:persp3d-origin="500 : 250 : 1"
       id="perspective2844" />
  </defs>
  <sodipodi:namedview
     pagecolor="#ffffff"
     bordercolor="#666666"
     borderopacity="1"
     objecttolerance="10"
     gridtolerance="10"
     guidetolerance="10"
     inkscape:pageopacity="0"
     inkscape:pageshadow="2"
     inkscape:window-width="1031"
     inkscape:window-height="728"
     id="namedview2838"
     showgrid="false"
     inkscape:zoom="0.5"
     inkscape:cx="500"
     inkscape:cy="377.73285"
     inkscape:window-x="0"
     inkscape:window-y="0"
     inkscape:window-maximized="0"
     inkscape:current-layer="svgg" />
  <g
     id="svgg">
    <path
       id="path0"
       d=""
       stroke="none"
       fill="#000000"
       fill-rule="evenodd" />
    <path
       id="path1"
       d=""
       stroke="none"
       fill="#ffffff"
       fill-rule="evenodd" />
    <path
       id="path2"
       d="m 117.9244,42.445259 c -20.325702,2.844176 -49.162621,9.998931 -60.303233,14.962138 -1.836001,0.819146 -3.954269,1.487889 -4.706978,1.487889 -0.75271,0 -3.827122,1.152174 -6.832875,2.55949 -3.00321,1.407316 -6.94985,3.217491 -8.768051,4.020521 l -3.30582,1.463716 0,30.35668 0,30.353987 2.469193,0 c 1.360472,0 3.094756,-0.60428 3.855095,-1.34285 1.355386,-1.31601 2.403076,-1.99818 9.836084,-6.4135 6.403119,-3.80298 16.671503,-9.08579 23.509464,-12.09379 3.636402,-1.60069 8.21369,-3.64452 10.171753,-4.54155 1.958062,-0.89703 6.077622,-2.34195 9.154577,-3.20675 3.076955,-0.867488 9.027431,-2.535319 13.223281,-3.708978 64.0617,-17.919115 116.97515,5.884408 116.97515,52.626658 0,42.60355 -30.1033,66.16536 -87.36518,68.3784 l -20.45539,0.79229 0,24.04524 0,24.04792 20.59779,0 c 55.9955,0 81.26977,13.33728 91.76447,48.42888 3.31854,11.08933 3.88053,40.86053 0.97649,51.47985 -0.89003,3.24973 -1.8716,7.05002 -2.18184,8.44391 -0.31024,1.39388 -1.71648,4.77788 -3.12527,7.52001 -1.40625,2.74212 -3.26005,6.43498 -4.11702,8.20755 -14.421,29.80342 -68.78648,46.12454 -115.10355,34.55446 -22.54315,-5.62926 -46.057699,-14.32025 -57.261885,-21.16346 -1.00446,-0.61234 -4.437427,-2.60514 -7.628814,-4.42875 -3.191388,-1.82092 -6.705728,-3.98023 -7.809364,-4.79401 -1.103635,-0.81646 -3.51434,-1.48252 -5.355427,-1.48252 l -3.34905,0 0.269551,30.17943 0.269552,30.1821 3.560113,1.38046 c 11.397449,4.41532 30.858555,11.26659 36.109723,12.70882 3.356678,0.9212 9.536018,2.62395 13.731866,3.78418 39.802065,11.00071 92.232365,10.19768 126.129735,-1.93103 13.6098,-4.8719 37.63548,-18.70335 37.63548,-21.66838 0,-0.50491 0.54419,-0.9212 1.2079,-0.9212 3.78643,0 22.18968,-22.97096 30.02447,-37.47383 16.36889,-30.31102 19.71794,-84.9654 6.8049,-111.07865 -0.94088,-1.90148 -2.18184,-4.42606 -2.76163,-5.60777 -2.59125,-5.29087 -3.38719,-6.70088 -5.7623,-10.22185 -9.44193,-13.97917 -20.0002,-23.06227 -36.1504,-31.08988 -4.8087,-2.39029 -9.15713,-4.3455 -9.66317,-4.3455 -0.50859,0 -2.42596,-0.69022 -4.26196,-1.53085 -1.83855,-0.84332 -7.12532,-2.62932 -11.75346,-3.96681 -9.96069,-2.88446 -10.07513,-4.03933 -0.65863,-6.64447 15.33646,-4.24075 28.12744,-11.82522 41.40921,-24.55553 21.45985,-20.56454 28.66146,-37.8176 28.6284,-68.58251 -0.0331,-34.26708 -9.49533,-54.84506 -34.29661,-74.593149 C 216.65398,45.840008 165.43666,35.795419 117.9244,42.445259 m 188.68602,217.269271 0,210.63286 10.17175,0 10.17175,0 0,117.14836 0,117.14837 2.69043,2.63469 2.69297,2.63469 30.7365,0 30.73649,0 2.68026,-2.83343 2.6828,-2.83075 0,-74.98795 0,-74.98796 41.44989,-0.38674 c 46.44422,-0.43508 55.27076,-1.55234 75.03702,-9.50744 2.8074,-1.13069 5.45969,-2.05458 5.89453,-2.05458 0.90529,0 15.94168,-7.63818 17.48016,-8.87898 3.09475,-2.49503 8.86976,-6.16104 9.70893,-6.16104 0.53402,0 0.97141,-0.37869 0.97141,-0.84332 0,-0.46194 1.28164,-1.64098 2.85063,-2.61857 11.32625,-7.06881 32.82679,-34.10057 39.96736,-50.25248 9.89966,-22.39622 12.0815,-33.48286 12.09676,-61.43851 0.008,-12.22539 0.42467,-22.49826 0.93071,-22.8286 0.5035,-0.32766 2.67772,-3.37864 4.83158,-6.77607 17.78023,-28.06845 28.22153,-59.24696 33.0048,-98.56857 1.53848,-12.64705 0.62811,-49.43334 -1.54356,-62.30867 -2.38274,-14.12956 -4.66121,-25.1249 -6.34463,-30.61719 -0.81629,-2.65886 -1.84872,-6.28458 -2.29374,-8.05716 -2.09538,-8.30693 -13.62506,-34.29662 -16.95885,-38.22046 -0.7934,-0.93463 -1.44185,-2.02772 -1.44185,-2.43058 0,-0.40285 -1.67071,-3.26314 -3.71269,-6.35978 C 596.99616,114.57292 574.70222,92.144483 557.34412,81.879666 540.85317,72.127822 538.27717,70.92462 519.523,64.202266 484.45334,51.633103 470.97577,50.2419 378.06698,49.586585 l -71.45656,-0.502229 0,210.630174 M 426.49469,99.728953 c 40.38441,1.745717 64.27022,7.224587 88.63666,20.325517 6.18442,3.32492 15.74587,8.99716 16.2748,9.65517 0.27973,0.34645 2.53023,2.08142 5.00196,3.85131 15.59584,11.17796 32.35889,34.51954 40.88536,56.93455 11.96453,31.45245 13.7039,91.21238 3.71523,127.58238 l -1.11126,4.03932 -7.71527,-7.79932 c -4.24417,-4.2891 -7.8704,-8.1619 -8.05603,-8.60504 -0.18818,-0.44315 -0.93835,-0.80573 -1.67326,-0.80573 -0.73236,0 -1.56899,-0.65531 -1.85888,-1.45296 -0.2899,-0.80035 -2.74383,-2.81464 -5.44952,-4.47441 -2.70569,-1.65977 -5.14945,-3.37058 -5.42917,-3.80298 -1.50797,-2.32046 -23.83242,-12.82431 -32.54961,-15.31128 -25.50567,-7.2783 -37.7194,-8.26127 -102.59484,-8.26127 l -54.05015,0 0,-86.48015 0,-86.480137 20.45539,0 c 11.24742,0 31.73078,0.488801 45.51859,1.08503 M 656.773,274.36244 l -2.28864,2.79583 0,213.6355 0,213.63818 2.40562,2.73943 2.40562,2.74212 30.85092,0 30.85093,0 2.85318,-2.88715 2.85317,-2.88715 0,-80.37013 0,-80.37013 28.83947,0 28.83946,0 4.65866,6.17716 c 2.56328,3.39743 6.34209,8.11087 8.39933,10.47429 2.05723,2.36344 6.50992,8.04374 9.89711,12.62289 3.38465,4.57915 6.5379,8.32573 7.00834,8.32573 0.4679,0 0.85188,0.48342 0.85188,1.07428 0,0.59086 0.80103,1.94178 1.78006,3.00264 1.69614,1.83971 5.65804,6.77069 13.98616,17.40882 2.08267,2.65886 4.1933,4.99544 4.68918,5.19149 0.49841,0.19875 0.90528,1.04475 0.90528,1.88001 0,0.83795 0.37382,1.5228 0.829,1.5228 0.45519,0 4.07379,4.23001 8.04077,9.40002 8.15012,10.62471 19.11781,24.53135 24.28252,30.78907 1.9072,2.30973 3.46602,4.60601 3.46602,5.10288 0,0.49685 0.38399,0.90239 0.85189,0.90239 0.47044,0 3.86781,3.9883 7.55252,8.86287 3.68218,4.87458 8.12978,10.49042 9.87932,12.48322 1.75208,1.99013 5.75975,7.06613 8.90791,11.28002 5.82842,7.80202 10.04461,12.91294 14.40575,17.46792 l 2.43867,2.54606 32.39958,0 32.40212,0 0,-5.37143 0,-5.37144 -29.83884,0 -29.84138,0 -22.28885,-28.07919 C 838.09721,593.05788 826.47853,578.41266 809.095,556.45691 l -18.81774,-23.76593 -36.8726,-0.0188 -36.87261,-0.0161 0,83.25728 0,83.25728 -26.44656,0 -26.44655,0 0,-208.41178 0,-208.41177 66.37068,0.0241 c 93.76322,0.0349 107.78752,1.64633 135.89716,15.6255 39.16379,19.47415 56.58546,49.573 56.54986,97.68765 -0.0432,55.18347 -20.98941,90.62421 -68.26263,115.50739 l -11.35422,5.97841 11.86281,14.50557 c 6.52518,7.97658 37.72449,46.35819 69.33321,85.29305 l 57.4704,70.78749 0.29752,-8.97299 c 0.16529,-4.93366 -0.089,-9.25498 -0.56199,-9.60144 -0.47298,-0.34646 -3.12781,-3.52903 -5.90215,-7.07418 -4.7909,-6.12613 -9.85389,-12.31671 -12.20102,-14.92185 -0.59251,-0.65532 -4.88244,-6.02676 -9.53348,-11.93534 -4.64849,-5.90858 -9.08592,-11.28002 -9.85643,-11.93533 -0.77305,-0.65532 -1.4037,-1.74303 -1.4037,-2.41715 0,-0.67412 -0.35601,-1.22468 -0.79339,-1.22468 -0.43739,0 -3.75592,-3.7251 -7.37453,-8.2774 -3.6186,-4.55497 -7.49658,-9.37315 -8.61547,-10.71333 -1.11889,-1.33748 -3.40754,-4.1548 -5.08588,-6.26309 -1.67834,-2.10829 -3.79406,-4.65973 -4.70189,-5.67224 -0.90783,-1.01251 -4.73749,-5.70715 -8.50867,-10.43402 -3.77118,-4.72686 -7.26263,-8.75544 -7.7585,-8.95149 -0.49333,-0.19875 -0.9002,-1.04475 -0.9002,-1.88001 0,-0.83794 -0.35602,-1.5228 -0.7934,-1.5228 -0.43739,0 -3.72541,-3.74658 -7.30586,-8.32573 -3.583,-4.57915 -7.35418,-9.29259 -8.38661,-10.4743 -1.02989,-1.18172 -3.46857,-4.08229 -5.419,-6.44573 -1.95044,-2.36343 -4.37131,-5.26401 -5.38086,-6.44572 -9.33004,-10.92013 -11.13044,-14.50288 -7.28552,-14.50288 0.93835,0 2.53531,-0.96686 3.5474,-2.14858 1.01209,-1.18172 2.68534,-2.14857 3.71778,-2.14857 1.03243,0 1.87668,-0.37332 1.87668,-0.82989 0,-0.45657 1.60205,-1.74035 3.56012,-2.85492 1.95806,-1.11458 3.56011,-2.43326 3.56011,-2.93012 0,-0.49685 0.49842,-0.90508 1.10364,-0.90508 2.74637,0 31.44597,-30.40771 31.44597,-33.31634 0,-0.48612 0.40941,-1.04207 0.91037,-1.24081 2.81758,-1.1092 11.25505,-20.47323 15.13303,-34.7344 5.64532,-20.75792 5.97844,-65.3113 0.61539,-82.18299 -0.8468,-2.65886 -1.89958,-6.28459 -2.33951,-8.05716 -1.19009,-4.79132 -7.83225,-17.51625 -12.33325,-23.63432 -5.24862,-7.13328 -16.97665,-19.87433 -18.29389,-19.87433 -0.57725,0 -1.30453,-0.70902 -1.61985,-1.57382 -0.86969,-2.39566 -13.69627,-11.22899 -22.7593,-15.67385 -9.94798,-4.87995 -11.77889,-5.68298 -14.73379,-6.46184 -1.68596,-0.44583 -4.43997,-1.30795 -6.1183,-1.91761 -16.66388,-6.0536 -29.05307,-6.84321 -114.43222,-7.2971 l -77.81391,-0.41628 -2.28865,2.79583 m -183.27718,9.04819 c 41.96102,3.67406 76.73316,20.12141 96.96732,45.8667 l 5.57921,7.09836 -3.13545,6.55584 c -5.62498,11.77955 -13.14444,22.48483 -23.27042,33.14713 -11.60852,12.22002 -11.37711,12.13677 -13.62507,4.87996 -11.78652,-38.05395 -37.18538,-49.82009 -110.13719,-51.02597 l -36.87261,-0.60698 0,46.36894 0,46.36893 -14.49474,-0.29812 -14.49475,-0.29811 -0.26192,-69.56011 -0.26193,-69.56012 51.12069,0.0161 c 28.11727,0.0107 56.41508,0.48074 62.88686,1.04743 m 243.03623,124.49649 0,78.55459 36.36402,-0.0134 c 55.23007,-0.0215 71.59134,-3.63378 90.47774,-19.97906 29.24887,-25.31291 33.87702,-86.65203 8.54681,-113.30242 -17.86922,-18.80272 -32.39957,-22.37741 -94.44726,-23.24221 l -40.94131,-0.56937 0,78.5519 M 452.06648,338.27449 c 10.34976,0.62845 21.48783,1.83971 24.74787,2.6884 3.26259,0.84869 6.58621,1.54429 7.38724,1.54429 1.99875,0 17.01989,7.14133 23.30094,11.07859 8.56208,5.36876 18.05995,19.23512 21.74975,31.75325 l 1.82329,6.1879 -4.1577,2.43863 c -10.03698,5.88441 -18.55074,10.5119 -20.43251,11.10545 -1.1189,0.35183 -5.07825,1.84778 -8.79603,3.31955 -7.27026,2.87909 -21.21573,6.65252 -27.82228,7.52807 -2.23779,0.29811 -8.87486,1.27034 -14.74904,2.16469 -5.87419,0.89165 -21.5514,1.89611 -34.83826,2.23451 l -24.15791,0.60967 0,-41.89454 0,-41.8972 18.56345,-0.003 c 10.2099,-0.003 27.03143,0.51297 37.38119,1.14143 m 335.41863,3.23898 c 43.19181,2.7636 62.33505,15.48854 68.79411,45.72973 2.60651,12.20391 0.79594,35.81137 -3.39228,44.22842 -0.49587,0.9964 -2.1437,4.47172 -3.65929,7.72143 -3.82712,8.19682 -12.32308,19.33718 -14.74904,19.33718 -0.53402,0 -0.9714,0.41092 -0.9714,0.91046 0,0.50223 -1.83092,1.78332 -4.0687,2.84955 -2.23779,1.06623 -4.0687,2.34732 -4.0687,2.84954 0,0.49955 -0.67134,0.91046 -1.49017,0.91046 -0.82137,0 -2.99558,0.68755 -4.83158,1.52817 -12.96135,5.93276 -28.40716,8.04374 -65.13482,8.90585 l -27.20944,0.6392 0,-68.38108 0,-68.38377 21.36577,0 c 11.74838,0 29.48537,0.52103 39.41554,1.15486 m -192.43176,73.77669 c -3.1329,50.80575 -27.52476,89.68421 -70.54619,112.44567 -23.31874,12.33819 -43.08754,15.71952 -96.09,16.44198 l -39.41555,0.53713 0,77.22784 0,77.22785 -25.93797,0 -25.93797,0 0,-114.41162 0,-114.41161 25.93797,0 25.93797,0 0,13.03379 0,13.0311 35.85543,-0.58549 c 35.68505,-0.58548 41.84151,-1.13605 57.07371,-5.1136 20.32824,-5.30967 36.5293,-17.3954 46.64003,-34.80155 3.04644,-5.24252 4.22636,-6.20937 13.30465,-10.90133 17.36318,-8.97298 32.97428,-20.77403 45.95089,-34.73708 7.99754,-8.60236 8.06366,-8.5567 7.22703,5.01692 m -76.89336,41.89721 c -0.0356,1.28914 -8.29252,10.25945 -12.18322,13.23791 -17.1216,13.10094 -40.14791,18.13129 -83.15408,18.16351 l -26.70085,0.0215 0,-8.96224 0,-8.96225 30.83313,-0.63651 c 41.57958,-0.85943 68.35672,-4.85309 90.97361,-13.57093 0.13986,-0.0537 0.24412,0.26588 0.23141,0.70902"
       style="fill:#7bbce5;fill-rule:evenodd;stroke:none" />
    <path
       id="path3"
       d="m 360.02331,351.76633 0.26181,69.58861 14.48838,0.29823 14.48839,0.29824 0,-46.38793 0,-46.38792 36.85641,0.60722 c 72.91981,1.20638 98.30752,12.97733 110.08887,51.04687 2.24696,7.25977 2.01566,7.34307 13.61908,-4.88195 10.12153,-10.66667 17.6377,-21.37633 23.26022,-33.16072 l 3.13406,-6.55853 -5.57676,-7.10125 c -16.10498,-20.5085 -43.7956,-36.41447 -74.18053,-42.61296 -17.66313,-3.60571 -31.48047,-4.30159 -85.60348,-4.3204 l -51.09827,-0.0162 0.26182,69.58861 m 303.75537,138.90854 0,208.49715 26.43494,0 26.43496,0 0,-83.29138 0,-83.2914 36.85641,0.0162 36.85643,0.0188 18.80948,23.77566 c 17.37589,21.96475 28.98948,36.61598 90.9108,114.6815 l 22.27907,28.09069 29.82829,0 29.82574,0 0,-5.40319 0,-5.4032 -54.2679,-66.87224 c -29.84863,-36.77985 -61.13845,-75.31959 -69.53663,-85.64772 l -15.26618,-18.77281 11.3289,-5.96742 c 47.22705,-24.87994 68.16658,-60.34865 68.2098,-115.54396 0.0356,-48.13436 -17.37845,-78.24554 -56.52505,-97.72766 -28.0973,-13.98485 -42.11544,-15.59694 -135.83751,-15.63186 l -66.34155,-0.0241 0,208.49715 M 808.66254,332.09613 c 41.28427,7.10663 58.9601,27.90261 58.96773,69.37634 0.005,35.57617 -10.20797,56.99281 -34.57133,72.50382 -15.26364,9.71554 -32.41332,12.36742 -80.06231,12.38623 l -36.34805,0.0136 0,-78.58677 0,-78.58407 40.92333,0.5696 c 30.8323,0.42989 43.42957,1.00219 51.09063,2.32141 m -220.66321,78.06013 c -12.97091,13.96877 -28.57516,25.77466 -45.93073,34.75132 -9.0743,4.69386 -10.2537,5.66113 -13.29881,10.90578 -10.10628,17.41328 -26.30023,29.50397 -46.61956,34.81581 -15.2255,3.97918 -21.37926,4.52998 -57.04865,5.1157 l -35.83969,0.58573 0,-13.03644 0,-13.03914 -25.92659,0 -25.92658,0 0,114.45849 0,114.45849 25.92658,0 25.92659,0 0,-77.25948 0,-77.25948 39.39824,-0.53736 c 52.9792,-0.72276 72.73933,-4.10546 96.04782,-16.4487 43.00256,-22.77079 67.38371,-61.66519 70.51525,-112.49175 0.83625,-13.57918 0.77016,-13.62486 -7.22387,-5.01897"
       style="fill:#020390;fill-rule:evenodd;stroke:none" />
    <path
       id="path4"
       d=""
       stroke="none"
       fill="#0000ff"
       fill-rule="evenodd" />
  </g>
</svg>
